<?xml version="1.0" encoding="utf-8"?>
<!-- Generator: Adobe Illustrator 16.0.0, SVG Export Plug-In . SVG Version: 6.00 Build 0)  -->
<!DOCTYPE svg PUBLIC "-//W3C//DTD SVG 1.1//EN" "http://www.w3.org/Graphics/SVG/1.1/DTD/svg11.dtd">
<svg version="1.1" id="Layer_1" xmlns="http://www.w3.org/2000/svg" xmlns:xlink="http://www.w3.org/1999/xlink" x="0px" y="0px"
	 width="100px" height="231.579px" viewBox="0 0 100 231.579" enable-background="new 0 0 100 231.579" xml:space="preserve">
<path fill="#E34B2B" d="M53.125,73.454c12.053,0,21.914-9.861,21.914-21.914c0-12.051-9.861-21.914-21.914-21.914
	S31.211,39.489,31.211,51.54C31.211,63.593,41.072,73.454,53.125,73.454 M53.125,95.368c-12.053,0-21.914,9.863-21.914,21.914
	c0,12.053,9.861,21.914,21.914,21.914s21.914-9.861,21.914-21.914C75.039,105.23,65.178,95.368,53.125,95.368 M53.125,161.109
	c-12.053,0-21.914,9.861-21.914,21.914s9.861,21.914,21.914,21.914s21.914-9.861,21.914-21.914S65.178,161.109,53.125,161.109"/>
</svg>
