<?xml version="1.0" encoding="utf-8"?>
<!-- Generator: Adobe Illustrator 16.0.0, SVG Export Plug-In . SVG Version: 6.00 Build 0)  -->
<!DOCTYPE svg PUBLIC "-//W3C//DTD SVG 1.1//EN" "http://www.w3.org/Graphics/SVG/1.1/DTD/svg11.dtd">
<svg version="1.1" id="Layer_1" xmlns="http://www.w3.org/2000/svg" xmlns:xlink="http://www.w3.org/1999/xlink" x="0px" y="0px"
	 width="478.947px" height="618.997px" viewBox="0 0 478.947 618.997" enable-background="new 0 0 478.947 618.997"
	 xml:space="preserve">
<polygon fill="#FFFFFF" points="277.158,92.976 220.634,57.737 220.634,332.452 260.534,332.452 260.534,130.027 277.158,140.133 
	"/>
<polygon fill="#FFFFFF" points="210.66,92.976 154.134,57.737 154.134,332.452 194.033,332.452 194.033,130.027 210.66,140.133 "/>
<path fill="#FFFFFF" d="M370.262,197.75c14.629,9.931,28.006,22.993,39.897,35.997v-99.569l0.005-0.009L287.133,57.732v274.72
	h39.906V130.027l43.223,26.375V197.75z"/>
<path fill="#FFFFFF" d="M230.076,391.134c0,11.932-9.678,21.615-21.614,21.615c-11.938,0-21.611-9.684-21.611-21.615
	c0-11.934,9.674-21.611,21.611-21.611C220.397,369.522,230.076,379.2,230.076,391.134"/>
<path fill="#FFFFFF" d="M295.467,391.134c0,11.932-9.678,21.615-21.611,21.615c-11.933,0-21.61-9.684-21.61-21.615
	c0-11.934,9.678-21.611,21.61-21.611C285.789,369.522,295.467,379.2,295.467,391.134"/>
<path fill="#FFFFFF" d="M337.01,191.396v55.224c37.598,28.865,61.937,74.182,61.937,125.129
	c0,87.006-70.782,157.787-157.787,157.787c-87.008,0-157.787-70.781-157.787-157.787c0-50.432,23.843-95.34,60.785-124.243v-55.481
	C80.313,226.624,36.818,294.179,36.818,371.749c0,112.68,91.669,204.34,204.341,204.34c112.675,0,204.339-91.66,204.339-204.34
	C445.498,293.712,401.487,225.802,337.01,191.396"/>
</svg>
