<?xml version="1.0" encoding="utf-8"?>
<!-- Generator: Adobe Illustrator 16.0.0, SVG Export Plug-In . SVG Version: 6.00 Build 0)  -->
<!DOCTYPE svg PUBLIC "-//W3C//DTD SVG 1.1//EN" "http://www.w3.org/Graphics/SVG/1.1/DTD/svg11.dtd">
<svg version="1.1" xmlns="http://www.w3.org/2000/svg" xmlns:xlink="http://www.w3.org/1999/xlink" x="0px" y="0px"
	 width="694.736px" height="892.106px" viewBox="0 0 694.736 892.106" enable-background="new 0 0 694.736 892.106"
	 xml:space="preserve">
<g id="Layer_1" display="none">
	<path display="inline" fill="#FFFFFF" d="M333.264,504.402c0,16.206-13.143,29.353-29.353,29.353s-29.356-13.146-29.356-29.353
		c0-16.213,13.146-29.353,29.356-29.353S333.264,488.189,333.264,504.402"/>
	<path display="inline" fill="#FFFFFF" d="M422.079,504.402c0,16.206-13.146,29.353-29.353,29.353
		c-16.214,0-29.353-13.146-29.353-29.353c0-16.213,13.139-29.353,29.353-29.353C408.933,475.049,422.079,488.189,422.079,504.402"/>
	<path display="inline" fill="#FFFFFF" d="M348.313,805.881c-153.026,0-277.527-124.496-277.527-277.526
		s124.5-277.534,277.527-277.534c153.027,0,277.53,124.503,277.53,277.534S501.341,805.881,348.313,805.881 M348.313,312.872
		c-118.812,0-215.477,96.664-215.477,215.483c0,118.812,96.664,215.478,215.477,215.478c118.816,0,215.487-96.665,215.487-215.478
		C563.801,409.536,467.13,312.872,348.313,312.872"/>
	<path display="inline" fill="#FFFFFF" d="M464.948,254.06v-54.013l58.713,35.824v51.64c20.1,14.673,38.335,31.759,54.191,50.893
		V205.685l0.006-0.007L410.764,101.863v135.039C429.534,240.92,447.671,246.684,464.948,254.06"/>
	<path display="inline" fill="#FFFFFF" d="M348.313,230.266c8.873,0,17.638,0.469,26.316,1.229v-31.448l22.584,13.728v-64.046
		l-76.776-47.866v129.751C329.622,230.755,338.915,230.266,348.313,230.266"/>
	<path display="inline" fill="#FFFFFF" d="M284.311,237.265v-37.211l22.581,13.721v-64.046l-76.772-47.866v152.904
		C247.399,247.266,265.529,241.39,284.311,237.265"/>
	<path display="inline" fill="#FFFFFF" d="M275.49,593.399c-19.763,6.914-37.741,16.471-53.537,28.447l25.314,20.926
		c12.505-9.293,26.652-16.722,42.152-22.142c37.44-13.087,80.372-13.08,117.789,0c15.506,5.413,29.65,12.849,42.155,22.142
		l25.321-20.926c-15.797-11.977-33.775-21.533-53.551-28.447C374.854,577.219,321.757,577.219,275.49,593.399"/>
</g>
<g id="Layer_2" display="none">
	<path display="inline" fill="#FFFFFF" d="M330.816,485.664c0,16.317-13.236,29.546-29.553,29.546s-29.553-13.229-29.553-29.546
		c0-16.33,13.236-29.56,29.553-29.56S330.816,469.333,330.816,485.664"/>
	<path display="inline" fill="#FFFFFF" d="M420.232,485.664c0,16.317-13.229,29.546-29.546,29.546
		c-16.323,0-29.56-13.229-29.56-29.546c0-16.33,13.236-29.56,29.56-29.56C407.003,456.104,420.232,469.333,420.232,485.664"/>
	<path display="inline" fill="#FFFFFF" d="M345.969,810.881c-154.065,0-279.413-125.343-279.413-279.408
		c0-154.079,125.347-279.423,279.413-279.423c154.071,0,279.423,125.344,279.423,279.423
		C625.392,685.539,500.04,810.881,345.969,810.881 M345.969,314.523c-119.622,0-216.937,97.315-216.937,216.95
		c0,119.621,97.315,216.938,216.937,216.938c119.635,0,216.95-97.316,216.95-216.938
		C562.919,411.838,465.604,314.523,345.969,314.523"/>
	<path display="inline" fill="#FFFFFF" d="M463.407,255.311V200.93l59.105,36.067v51.985c20.236,14.773,38.595,31.981,54.56,51.24
		V206.6h0.007L408.84,102.071v135.965C427.745,242.082,445.999,247.885,463.407,255.311"/>
	<path display="inline" fill="#FFFFFF" d="M345.969,231.355c8.937,0,17.761,0.466,26.498,1.237V200.93l22.738,13.815v-64.482
		L317.9,102.071v130.642C327.15,231.847,336.506,231.355,345.969,231.355"/>
	<path display="inline" fill="#FFFFFF" d="M281.533,238.396V200.93l22.731,13.815v-64.482l-77.292-48.192v153.945
		C244.368,248.47,262.627,242.547,281.533,238.396"/>
	<rect x="243.762" y="584.056" display="inline" fill="#FFFFFF" width="204.426" height="29.76"/>
</g>
<g id="Layer_3">
	<path fill="#FFFFFF" d="M331.321,441.816c0,16.742-13.581,30.33-30.323,30.33c-16.749,0-30.323-13.587-30.323-30.33
		c0-16.742,13.574-30.316,30.323-30.316C317.74,411.5,331.321,425.075,331.321,441.816"/>
	<path fill="#FFFFFF" d="M423.068,441.816c0,16.742-13.574,30.33-30.323,30.33c-16.742,0-30.322-13.587-30.322-30.33
		c0-16.742,13.58-30.316,30.322-30.316C409.494,411.5,423.068,425.075,423.068,441.816"/>
	<path fill="#FFFFFF" d="M346.867,819.183c-158.08,0-286.698-128.611-286.698-286.691c0-158.094,128.618-286.705,286.698-286.705
		c158.089,0,286.699,128.61,286.699,286.705C633.566,690.572,504.956,819.183,346.867,819.183 M346.867,309.887
		c-122.738,0-222.597,99.852-222.597,222.604c0,122.739,99.858,222.591,222.597,222.591c122.753,0,222.604-99.852,222.604-222.591
		C569.472,409.739,469.62,309.887,346.867,309.887"/>
	<path fill="#FFFFFF" d="M487.879,588.413c7.981-18.859,12.023-38.905,12.023-59.566c0-18.436-3.223-36.406-9.607-53.49
		l-32.779,13.86c4.554,12.673,6.847,25.974,6.847,39.63c0,15.868-3.105,31.244-9.224,45.733
		c-5.913,13.982-14.387,26.561-25.181,37.349c-10.795,10.803-23.365,19.268-37.35,25.195c-29.065,12.275-62.401,12.275-91.46,0
		c-13.99-5.928-26.561-14.393-37.362-25.195c-10.795-10.802-19.269-23.366-25.182-37.349c-6.125-14.489-9.231-29.879-9.231-45.733
		c0-13.656,2.301-26.957,6.848-39.63l-32.774-13.86c-6.384,17.084-9.613,35.055-9.613,53.49c0,20.661,4.049,40.707,12.038,59.581
		c7.702,18.217,18.736,34.575,32.788,48.628c14.052,14.065,30.426,25.099,48.643,32.802c37.751,15.978,81.396,15.963,119.141,0
		c18.223-7.703,34.59-18.736,48.648-32.802C469.137,623.002,480.17,606.644,487.879,588.413"/>
	<path fill="#FFFFFF" d="M467.36,249.132v-55.798l60.646,37.007v53.34c20.771,15.158,39.602,32.815,55.989,52.576V199.152h0.008
		L411.379,91.898v139.509C430.776,235.559,449.505,241.512,467.36,249.132"/>
	<path fill="#FFFFFF" d="M346.867,224.552c9.171,0,18.225,0.478,27.188,1.27v-32.487l23.332,14.175v-66.163l-79.32-49.448v134.046
		C327.559,225.057,337.159,224.552,346.867,224.552"/>
	<path fill="#FFFFFF" d="M280.753,231.775v-38.441l23.324,14.175v-66.163l-79.313-49.448v157.958
		C242.619,242.113,261.348,236.036,280.753,231.775"/>
</g>
</svg>
